<svg width="128" height="128" viewBox="0 0 128 128" xmlns="http://www.w3.org/2000/svg">
  <defs>
    <linearGradient id="grad1" x1="0%" y1="0%" x2="100%" y2="100%">
      <stop offset="0%" style="stop-color:#3b82f6;stop-opacity:1" />
      <stop offset="100%" style="stop-color:#1d4ed8;stop-opacity:1" />
    </linearGradient>
  </defs>
  
  <!-- Background circle -->
  <circle cx="64" cy="64" r="60" fill="url(#grad1)" stroke="#1e40af" stroke-width="4"/>
  
  <!-- Letter N -->
  <path d="M 35 25 L 35 95 L 50 95 L 80 45 L 80 95 L 95 95 L 95 25 L 80 25 L 50 75 L 50 25 Z" 
        fill="white" stroke="white" stroke-width="2"/>
  
  <!-- Brain/Network lines -->
  <path d="M 25 40 Q 35 35 45 40 Q 55 45 65 40 Q 75 35 85 40 Q 95 45 105 40" 
        stroke="white" stroke-width="2" fill="none" opacity="0.7"/>
  <path d="M 25 60 Q 35 55 45 60 Q 55 65 65 60 Q 75 55 85 60 Q 95 65 105 60" 
        stroke="white" stroke-width="2" fill="none" opacity="0.7"/>
  <path d="M 25 80 Q 35 75 45 80 Q 55 85 65 80 Q 75 75 85 80 Q 95 85 105 80" 
        stroke="white" stroke-width="2" fill="none" opacity="0.7"/>
</svg>